<svg width="24" height="25" viewBox="0 0 24 25" fill="none" xmlns="http://www.w3.org/2000/svg">
<path fill-rule="evenodd" clip-rule="evenodd" d="M12 22.5C17.5228 22.5 22 18.0228 22 12.5C22 6.97715 17.5228 2.5 12 2.5C6.47715 2.5 2 6.97715 2 12.5C2 18.0228 6.47715 22.5 12 22.5ZM11.7436 11.4121L14.2766 8.87915C14.577 8.57875 15.064 8.57875 15.3644 8.87915C15.6648 9.17955 15.6648 9.6666 15.3644 9.96701L12.8314 12.5L15.3645 15.033C15.6649 15.3334 15.6649 15.8205 15.3645 16.1209C15.0641 16.4213 14.577 16.4213 14.2766 16.1209L11.7436 13.5879L9.21059 16.1209C8.91019 16.4213 8.42314 16.4213 8.12274 16.1209C7.82233 15.8204 7.82233 15.3334 8.12274 15.033L10.6557 12.5L8.12276 9.96703C7.82236 9.66663 7.82236 9.17958 8.12276 8.87917C8.42317 8.57877 8.91022 8.57877 9.21062 8.87917L11.7436 11.4121ZM3.53846 12.5C3.53846 17.1732 7.32682 20.9615 12 20.9615C16.6732 20.9615 20.4615 17.1732 20.4615 12.5C20.4615 7.82682 16.6732 4.03846 12 4.03846C7.32682 4.03846 3.53846 7.82682 3.53846 12.5Z" fill="black"/>
</svg>
